<svg xmlns="http://www.w3.org/2000/svg" width="1120" height="680" viewBox="0 0 1120 680">
<rect width="100%" height="100%" fill="#ffffff"/>
<text x="92" y="34" font-family="Arial, sans-serif" font-size="22" font-weight="700" fill="#111827">Training Loss by Learning Rate</text>
<text x="92" y="58" font-family="Arial, sans-serif" font-size="13" fill="#4b5563">TinyStories LR sweep and refine runs</text>
<rect x="92" y="64" width="738" height="530" fill="#f8fafc" stroke="#d1d5db"/>
<line x1="92" y1="594.0" x2="830" y2="594.0" stroke="#e5e7eb"/>
<text x="80" y="598.0" text-anchor="end" font-family="Arial, sans-serif" font-size="12" fill="#374151">1.11</text>
<line x1="92" y1="505.7" x2="830" y2="505.7" stroke="#e5e7eb"/>
<text x="80" y="509.7" text-anchor="end" font-family="Arial, sans-serif" font-size="12" fill="#374151">2.54</text>
<line x1="92" y1="417.3" x2="830" y2="417.3" stroke="#e5e7eb"/>
<text x="80" y="421.3" text-anchor="end" font-family="Arial, sans-serif" font-size="12" fill="#374151">3.97</text>
<line x1="92" y1="329.0" x2="830" y2="329.0" stroke="#e5e7eb"/>
<text x="80" y="333.0" text-anchor="end" font-family="Arial, sans-serif" font-size="12" fill="#374151">5.40</text>
<line x1="92" y1="240.7" x2="830" y2="240.7" stroke="#e5e7eb"/>
<text x="80" y="244.7" text-anchor="end" font-family="Arial, sans-serif" font-size="12" fill="#374151">6.83</text>
<line x1="92" y1="152.3" x2="830" y2="152.3" stroke="#e5e7eb"/>
<text x="80" y="156.3" text-anchor="end" font-family="Arial, sans-serif" font-size="12" fill="#374151">8.26</text>
<line x1="92" y1="64.0" x2="830" y2="64.0" stroke="#e5e7eb"/>
<text x="80" y="68.0" text-anchor="end" font-family="Arial, sans-serif" font-size="12" fill="#374151">9.69</text>
<line x1="92.0" y1="64" x2="92.0" y2="594" stroke="#eef2f7"/>
<text x="92.0" y="618" text-anchor="middle" font-family="Arial, sans-serif" font-size="12" fill="#374151">0</text>
<line x1="215.0" y1="64" x2="215.0" y2="594" stroke="#eef2f7"/>
<text x="215.0" y="618" text-anchor="middle" font-family="Arial, sans-serif" font-size="12" fill="#374151">500</text>
<line x1="338.0" y1="64" x2="338.0" y2="594" stroke="#eef2f7"/>
<text x="338.0" y="618" text-anchor="middle" font-family="Arial, sans-serif" font-size="12" fill="#374151">1000</text>
<line x1="461.0" y1="64" x2="461.0" y2="594" stroke="#eef2f7"/>
<text x="461.0" y="618" text-anchor="middle" font-family="Arial, sans-serif" font-size="12" fill="#374151">1500</text>
<line x1="584.0" y1="64" x2="584.0" y2="594" stroke="#eef2f7"/>
<text x="584.0" y="618" text-anchor="middle" font-family="Arial, sans-serif" font-size="12" fill="#374151">2000</text>
<line x1="707.0" y1="64" x2="707.0" y2="594" stroke="#eef2f7"/>
<text x="707.0" y="618" text-anchor="middle" font-family="Arial, sans-serif" font-size="12" fill="#374151">2500</text>
<line x1="830.0" y1="64" x2="830.0" y2="594" stroke="#eef2f7"/>
<text x="830.0" y="618" text-anchor="middle" font-family="Arial, sans-serif" font-size="12" fill="#374151">3000</text>
<text x="461.0" y="656" text-anchor="middle" font-family="Arial, sans-serif" font-size="14" fill="#111827">iteration</text>
<text x="24" y="329.0" transform="rotate(-90 24 329.0)" text-anchor="middle" font-family="Arial, sans-serif" font-size="14" fill="#111827">train loss</text>
<polyline fill="none" stroke="#2563eb" stroke-width="1.6" opacity="0.72" points="94.5,92.4 96.9,102.0 99.4,119.4 101.8,146.6 104.3,176.3 106.8,204.5 109.2,239.3 111.7,267.7 114.1,291.3 116.6,314.4 119.1,333.2 121.5,345.5 124.0,354.1 126.4,364.2 128.9,368.5 131.4,373.1 133.8,383.7 136.3,396.6 138.7,397.0 141.2,394.9 143.7,396.7 146.1,406.3 148.6,413.0 151.0,413.4 153.5,418.5 156.0,418.5 158.4,423.1 160.9,425.6 163.3,424.7 165.8,431.1 168.3,436.5 170.7,436.6 173.2,438.9 175.6,434.3 178.1,435.9 180.6,433.9 183.0,441.6 185.5,439.8 187.9,440.3 190.4,445.5 192.9,453.0 195.3,448.4 197.8,447.9 200.2,447.6 202.7,453.2 205.2,454.2 207.6,460.5 210.1,454.7 212.5,467.5 215.0,462.5 217.5,460.0 219.9,462.5 222.4,453.8 224.8,463.1 227.3,464.2 229.8,459.2 232.2,466.5 234.7,471.2 237.1,463.4 239.6,467.7 242.1,470.3 244.5,466.4 247.0,471.2 249.4,461.9 251.9,473.5 254.4,473.2 256.8,480.2 259.3,472.5 261.7,479.2 264.2,472.3 266.7,474.5 269.1,473.7 271.6,479.0 274.0,481.2 276.5,469.4 279.0,477.8 281.4,475.9 283.9,479.4 286.3,478.0 288.8,478.2 291.3,479.7 293.7,478.7 296.2,482.0 298.6,486.8 301.1,473.2 303.6,480.3 306.0,479.3 308.5,486.2 310.9,483.1 313.4,484.8 315.9,474.8 318.3,491.3 320.8,488.8 323.2,488.9 325.7,488.7 328.2,484.7 330.6,494.0 333.1,493.0 335.5,487.7 338.0,480.7 340.5,487.6 342.9,484.3 345.4,482.8 347.8,485.3 350.3,484.7 352.8,483.5 355.2,475.3 357.7,489.3 360.1,487.7 362.6,484.0 365.1,489.8 367.5,489.9 370.0,498.6 372.4,486.5 374.9,497.7 377.4,490.5 379.8,492.0 382.3,496.0 384.7,495.5 387.2,489.9 389.7,498.7 392.1,497.1 394.6,499.5 397.0,494.4 399.5,495.7 402.0,494.1 404.4,490.5 406.9,494.2 409.3,499.2 411.8,498.6 414.3,491.5 416.7,494.5 419.2,498.6 421.6,483.0 424.1,499.9 426.6,496.2 429.0,496.9 431.5,496.8 433.9,494.0 436.4,495.9 438.9,494.5 441.3,501.2 443.8,495.0 446.2,507.4 448.7,496.3 451.2,498.9 453.6,491.8 456.1,508.1 458.5,502.0 461.0,498.8 463.5,497.9 465.9,500.8 468.4,509.2 470.8,500.4 473.3,503.6 475.8,499.6 478.2,496.1 480.7,498.2 483.1,495.3 485.6,504.9 488.1,509.4 490.5,497.8 493.0,501.8 495.4,500.0 497.9,498.9 500.4,499.5 502.8,501.5 505.3,502.6 507.7,493.3 510.2,496.2 512.7,501.8 515.1,503.8 517.6,497.7 520.0,500.4 522.5,497.6 525.0,493.5 527.4,500.7 529.9,506.9 532.3,500.1 534.8,503.2 537.3,496.5 539.7,501.7 542.2,501.6 544.6,509.0 547.1,507.1 549.6,497.3 552.0,504.9 554.5,498.7 556.9,503.6 559.4,508.9 561.9,493.9 564.3,502.1 566.8,502.6 569.2,498.4 571.7,502.5 574.2,509.0 576.6,509.3 579.1,504.6 581.5,515.8 584.0,513.4 586.5,500.8 588.9,505.9 591.4,500.3 593.8,505.6 596.3,499.5 598.8,506.2 601.2,501.5 603.7,508.1 606.1,497.7 608.6,502.2 611.1,510.8 613.5,510.5 616.0,505.0 618.4,496.2 620.9,509.1 623.4,509.2 625.8,508.7 628.3,504.1 630.7,509.9 633.2,505.2 635.7,511.0 638.1,509.0 640.6,507.2 643.0,510.6 645.5,503.6 648.0,511.7 650.4,502.2 652.9,506.0 655.3,498.8 657.8,507.9 660.3,505.1 662.7,502.8 665.2,509.0 667.6,513.0 670.1,509.3 672.6,506.1 675.0,513.1 677.5,503.4 679.9,512.8 682.4,509.8 684.9,507.2 687.3,513.2 689.8,503.2 692.2,512.4 694.7,495.7 697.2,505.0 699.6,512.6 702.1,515.1 704.5,508.3 707.0,509.5 709.5,503.5 711.9,512.0 714.4,505.9 716.8,512.3 719.3,511.8 721.8,505.3 724.2,508.5 726.7,512.2 729.1,506.5 731.6,502.0 734.1,506.4 736.5,515.0 739.0,512.9 741.4,509.1 743.9,509.6 746.4,515.7 748.8,507.7 751.3,511.1 753.7,520.3 756.2,501.0 758.7,511.6 761.1,501.7 763.6,507.3 766.0,510.8 768.5,510.6 771.0,512.5 773.4,512.4 775.9,503.6 778.3,512.6 780.8,504.8 783.3,509.1 785.7,507.0 788.2,513.7 790.6,513.7 793.1,509.3 795.6,513.4 798.0,516.0 800.5,513.2 802.9,503.0 805.4,504.7 807.9,503.6 810.3,502.6 812.8,504.9 815.2,518.1 817.7,511.7 820.2,511.2 822.6,515.8 825.1,522.3 827.5,508.2 830.0,511.7"/>
<line x1="858" y1="84" x2="886" y2="84" stroke="#2563eb" stroke-width="3"/>
<text x="896" y="88" font-family="Arial, sans-serif" font-size="13" fill="#111827">lr=0.0001</text>
<text x="976" y="88" font-family="Arial, sans-serif" font-size="11" fill="#64748b">sweep-20260518-060009</text>
<polyline fill="none" stroke="#16a34a" stroke-width="1.6" opacity="0.72" points="94.5,97.5 96.9,126.7 99.4,172.4 101.8,221.6 104.3,271.0 106.8,310.5 109.2,344.6 111.7,361.8 114.1,374.0 116.6,394.1 119.1,407.8 121.5,415.9 124.0,420.6 126.4,427.7 128.9,425.7 131.4,428.5 133.8,439.2 136.3,451.0 138.7,448.2 141.2,445.2 143.7,445.5 146.1,453.5 148.6,459.5 151.0,457.6 153.5,464.4 156.0,464.2 158.4,467.4 160.9,468.0 163.3,467.7 165.8,472.1 168.3,478.4 170.7,476.2 173.2,480.6 175.6,472.9 178.1,476.5 180.6,472.1 183.0,479.9 185.5,478.2 187.9,478.3 190.4,483.6 192.9,489.9 195.3,486.4 197.8,484.5 200.2,483.6 202.7,488.1 205.2,490.3 207.6,495.6 210.1,489.2 212.5,500.7 215.0,496.2 217.5,492.1 219.9,495.2 222.4,488.3 224.8,496.9 227.3,498.7 229.8,491.7 232.2,498.2 234.7,503.1 237.1,494.5 239.6,498.4 242.1,501.9 244.5,498.1 247.0,502.8 249.4,493.1 251.9,503.4 254.4,504.1 256.8,510.9 259.3,502.7 261.7,509.8 264.2,503.2 266.7,504.4 269.1,503.8 271.6,509.0 274.0,511.1 276.5,499.9 279.0,506.4 281.4,506.6 283.9,509.6 286.3,507.9 288.8,506.6 291.3,509.5 293.7,508.3 296.2,510.3 298.6,516.6 301.1,501.9 303.6,509.7 306.0,507.8 308.5,515.5 310.9,511.5 313.4,514.2 315.9,502.8 318.3,518.3 320.8,517.9 323.2,517.5 325.7,517.0 328.2,514.5 330.6,523.7 333.1,519.6 335.5,515.8 338.0,509.1 340.5,514.7 342.9,512.1 345.4,511.1 347.8,512.3 350.3,512.9 352.8,511.1 355.2,504.0 357.7,517.3 360.1,516.7 362.6,512.4 365.1,517.1 367.5,517.4 370.0,527.2 372.4,514.1 374.9,524.7 377.4,517.5 379.8,520.9 382.3,523.4 384.7,522.8 387.2,520.1 389.7,526.2 392.1,523.6 394.6,526.7 397.0,521.6 399.5,525.2 402.0,520.7 404.4,518.0 406.9,520.6 409.3,525.8 411.8,526.2 414.3,519.4 416.7,521.7 419.2,525.7 421.6,509.0 424.1,527.7 426.6,523.1 429.0,524.7 431.5,522.5 433.9,520.8 436.4,524.3 438.9,522.2 441.3,530.0 443.8,521.8 446.2,533.7 448.7,523.6 451.2,525.5 453.6,519.1 456.1,535.9 458.5,530.2 461.0,524.9 463.5,526.2 465.9,527.0 468.4,535.3 470.8,528.8 473.3,530.4 475.8,527.0 478.2,523.7 480.7,525.5 483.1,523.8 485.6,531.5 488.1,536.3 490.5,526.0 493.0,528.1 495.4,528.2 497.9,528.1 500.4,528.5 502.8,528.6 505.3,530.1 507.7,522.0 510.2,523.7 512.7,529.3 515.1,531.7 517.6,525.3 520.0,529.0 522.5,525.1 525.0,521.2 527.4,528.7 529.9,534.2 532.3,527.8 534.8,532.1 537.3,524.0 539.7,530.8 542.2,529.3 544.6,536.2 547.1,535.1 549.6,525.6 552.0,532.0 554.5,527.3 556.9,531.7 559.4,535.0 561.9,523.1 564.3,530.4 566.8,529.8 569.2,527.8 571.7,530.4 574.2,537.3 576.6,536.3 579.1,533.5 581.5,542.8 584.0,541.4 586.5,530.2 588.9,533.2 591.4,528.4 593.8,535.3 596.3,527.1 598.8,536.0 601.2,529.3 603.7,535.6 606.1,527.0 608.6,531.3 611.1,539.1 613.5,538.5 616.0,532.8 618.4,524.5 620.9,536.8 623.4,536.5 625.8,537.0 628.3,532.9 630.7,537.5 633.2,533.5 635.7,537.9 638.1,536.0 640.6,535.5 643.0,540.4 645.5,532.9 648.0,539.0 650.4,530.9 652.9,533.4 655.3,527.5 657.8,536.5 660.3,533.5 662.7,531.2 665.2,536.9 667.6,541.3 670.1,537.1 672.6,532.5 675.0,541.8 677.5,529.8 679.9,540.9 682.4,539.6 684.9,534.5 687.3,543.2 689.8,531.8 692.2,539.7 694.7,523.6 697.2,535.0 699.6,540.4 702.1,542.9 704.5,537.4 707.0,537.6 709.5,531.9 711.9,540.5 714.4,533.6 716.8,540.7 719.3,540.7 721.8,534.8 724.2,537.9 726.7,541.8 729.1,536.4 731.6,532.2 734.1,535.9 736.5,543.2 739.0,541.1 741.4,537.9 743.9,537.5 746.4,543.5 748.8,536.6 751.3,539.3 753.7,548.5 756.2,531.7 758.7,540.4 761.1,530.9 763.6,535.1 766.0,539.7 768.5,540.8 771.0,541.9 773.4,541.1 775.9,533.7 778.3,539.6 780.8,533.6 783.3,538.5 785.7,536.1 788.2,542.2 790.6,543.2 793.1,537.4 795.6,542.8 798.0,545.9 800.5,542.3 802.9,532.6 805.4,532.3 807.9,532.9 810.3,533.4 812.8,535.4 815.2,546.4 817.7,540.1 820.2,540.6 822.6,543.9 825.1,550.6 827.5,537.1 830.0,541.8"/>
<line x1="858" y1="112" x2="886" y2="112" stroke="#16a34a" stroke-width="3"/>
<text x="896" y="116" font-family="Arial, sans-serif" font-size="13" fill="#111827">lr=0.0003</text>
<text x="976" y="116" font-family="Arial, sans-serif" font-size="11" fill="#64748b">sweep-20260518-060009</text>
<polyline fill="none" stroke="#f59e0b" stroke-width="1.6" opacity="0.72" points="94.5,107.5 96.9,167.3 99.4,238.0 101.8,306.8 104.3,345.2 106.8,372.4 109.2,397.2 111.7,409.9 114.1,414.6 116.6,431.3 119.1,439.9 121.5,446.6 124.0,449.1 126.4,455.3 128.9,452.3 131.4,453.1 133.8,464.7 136.3,475.7 138.7,471.5 141.2,467.9 143.7,468.9 146.1,475.2 148.6,481.4 151.0,479.8 153.5,486.1 156.0,485.1 158.4,487.2 160.9,487.4 163.3,486.7 165.8,490.5 168.3,496.8 170.7,494.1 173.2,499.4 175.6,490.9 178.1,493.9 180.6,489.3 183.0,496.7 185.5,495.5 187.9,495.6 190.4,500.5 192.9,506.4 195.3,503.6 197.8,500.5 200.2,500.0 202.7,503.4 205.2,506.2 207.6,510.8 210.1,505.2 212.5,515.8 215.0,511.0 217.5,507.3 219.9,509.6 222.4,503.9 224.8,511.5 227.3,514.7 229.8,506.1 232.2,512.8 234.7,516.4 237.1,511.4 239.6,513.3 242.1,516.7 244.5,511.7 247.0,518.3 249.4,508.6 251.9,518.0 254.4,518.9 256.8,525.4 259.3,517.8 261.7,524.8 264.2,517.6 266.7,518.7 269.1,518.8 271.6,522.0 274.0,524.6 276.5,514.6 279.0,521.1 281.4,520.9 283.9,524.7 286.3,522.2 288.8,521.1 291.3,524.0 293.7,522.1 296.2,524.5 298.6,530.9 301.1,515.7 303.6,524.6 306.0,522.4 308.5,528.6 310.9,526.1 313.4,528.1 315.9,517.0 318.3,532.3 320.8,531.5 323.2,531.8 325.7,531.0 328.2,526.9 330.6,538.2 333.1,532.8 335.5,530.2 338.0,523.8 340.5,528.6 342.9,526.0 345.4,525.1 347.8,525.8 350.3,527.5 352.8,524.4 355.2,519.2 357.7,532.2 360.1,529.7 362.6,526.7 365.1,528.5 367.5,531.6 370.0,541.0 372.4,528.0 374.9,537.6 377.4,530.3 379.8,534.5 382.3,537.5 384.7,536.0 387.2,534.5 389.7,540.0 392.1,537.1 394.6,540.6 397.0,535.7 399.5,538.8 402.0,533.2 404.4,530.2 406.9,534.5 409.3,539.6 411.8,539.3 414.3,533.5 416.7,535.2 419.2,539.5 421.6,519.3 424.1,540.4 426.6,536.7 429.0,537.8 431.5,536.5 433.9,533.5 436.4,536.7 438.9,534.7 441.3,545.0 443.8,534.4 446.2,545.7 448.7,536.1 451.2,538.6 453.6,532.9 456.1,549.1 458.5,543.1 461.0,538.0 463.5,539.2 465.9,539.8 468.4,548.0 470.8,541.3 473.3,542.1 475.8,539.4 478.2,537.4 480.7,537.8 483.1,537.1 485.6,544.7 488.1,548.3 490.5,538.6 493.0,540.4 495.4,541.1 497.9,542.1 500.4,542.4 502.8,541.4 505.3,541.5 507.7,536.0 510.2,537.0 512.7,541.7 515.1,543.4 517.6,538.6 520.0,542.4 522.5,537.9 525.0,534.0 527.4,542.2 529.9,547.5 532.3,541.3 534.8,544.7 537.3,537.0 539.7,543.9 542.2,542.4 544.6,547.6 547.1,547.6 549.6,538.2 552.0,545.3 554.5,540.7 556.9,544.3 559.4,547.1 561.9,537.0 564.3,543.2 566.8,542.4 569.2,540.9 571.7,542.9 574.2,550.3 576.6,548.2 579.1,546.0 581.5,554.9 584.0,553.7 586.5,544.2 588.9,546.1 591.4,541.3 593.8,548.2 596.3,539.4 598.8,548.9 601.2,542.4 603.7,547.7 606.1,540.3 608.6,544.1 611.1,552.6 613.5,551.1 616.0,546.6 618.4,539.2 620.9,549.2 623.4,549.0 625.8,549.4 628.3,546.0 630.7,550.6 633.2,547.3 635.7,550.9 638.1,547.2 640.6,548.4 643.0,553.0 645.5,545.4 648.0,550.2 650.4,544.0 652.9,545.8 655.3,540.6 657.8,550.0 660.3,546.4 662.7,544.6 665.2,550.2 667.6,552.9 670.1,550.1 672.6,544.8 675.0,554.0 677.5,542.6 679.9,552.8 682.4,551.7 684.9,546.8 687.3,555.1 689.8,545.0 692.2,552.7 694.7,538.3 697.2,547.7 699.6,552.9 702.1,556.7 704.5,550.2 707.0,550.4 709.5,544.3 711.9,552.1 714.4,546.7 716.8,553.8 719.3,553.0 721.8,547.6 724.2,551.9 726.7,554.8 729.1,549.4 731.6,546.4 734.1,550.0 736.5,555.9 739.0,553.7 741.4,551.7 743.9,550.2 746.4,556.0 748.8,549.4 751.3,551.9 753.7,561.5 756.2,545.6 758.7,553.5 761.1,544.0 763.6,548.2 766.0,552.9 768.5,553.9 771.0,555.5 773.4,554.4 775.9,547.5 778.3,552.7 780.8,546.8 783.3,551.3 785.7,548.8 788.2,555.2 790.6,556.8 793.1,551.0 795.6,556.3 798.0,558.4 800.5,554.7 802.9,547.1 805.4,545.0 807.9,546.3 810.3,547.3 812.8,548.9 815.2,559.0 817.7,553.0 820.2,553.5 822.6,556.4 825.1,562.9 827.5,549.7 830.0,554.9"/>
<line x1="858" y1="140" x2="886" y2="140" stroke="#f59e0b" stroke-width="3"/>
<text x="896" y="144" font-family="Arial, sans-serif" font-size="13" fill="#111827">lr=0.0007</text>
<text x="976" y="144" font-family="Arial, sans-serif" font-size="11" fill="#64748b">refine-20260518-062114</text>
<polyline fill="none" stroke="#dc2626" stroke-width="1.6" opacity="0.72" points="94.5,114.7 96.9,189.4 99.4,274.4 101.8,337.1 104.3,367.4 106.8,393.7 109.2,414.3 111.7,423.2 114.1,425.3 116.6,440.9 119.1,449.5 121.5,455.5 124.0,458.4 126.4,463.6 128.9,459.3 131.4,461.1 133.8,471.7 136.3,482.1 138.7,477.5 141.2,473.6 143.7,474.5 146.1,481.8 148.6,487.0 151.0,484.6 153.5,491.3 156.0,490.3 158.4,491.8 160.9,492.7 163.3,491.4 165.8,495.0 168.3,501.4 170.7,499.0 173.2,503.3 175.6,495.4 178.1,497.0 180.6,494.3 183.0,501.1 185.5,499.3 187.9,499.5 190.4,503.6 192.9,508.9 195.3,507.1 197.8,504.1 200.2,503.6 202.7,507.2 205.2,509.9 207.6,513.2 210.1,509.0 212.5,518.4 215.0,514.7 217.5,510.0 219.9,512.8 222.4,507.0 224.8,515.1 227.3,518.0 229.8,509.1 232.2,516.2 234.7,520.0 237.1,514.1 239.6,515.7 242.1,519.2 244.5,514.9 247.0,521.2 249.4,512.2 251.9,520.7 254.4,521.5 256.8,527.6 259.3,521.5 261.7,528.2 264.2,521.3 266.7,520.9 269.1,521.0 271.6,524.3 274.0,527.2 276.5,517.5 279.0,523.4 281.4,523.9 283.9,526.8 286.3,524.2 288.8,523.2 291.3,526.6 293.7,525.2 296.2,526.6 298.6,533.8 301.1,518.7 303.6,527.0 306.0,524.9 308.5,531.1 310.9,529.0 313.4,530.6 315.9,518.6 318.3,534.1 320.8,533.8 323.2,534.4 325.7,533.2 328.2,529.6 330.6,539.6 333.1,535.1 335.5,532.2 338.0,526.9 340.5,531.4 342.9,528.3 345.4,528.2 347.8,528.4 350.3,529.4 352.8,526.4 355.2,521.7 357.7,534.2 360.1,531.0 362.6,528.6 365.1,530.3 367.5,533.3 370.0,543.3 372.4,530.1 374.9,539.9 377.4,531.8 379.8,536.3 382.3,538.7 384.7,537.9 387.2,535.8 389.7,542.1 392.1,538.7 394.6,542.2 397.0,536.4 399.5,542.3 402.0,534.9 404.4,532.4 406.9,536.2 409.3,541.1 411.8,541.4 414.3,535.5 416.7,537.8 419.2,542.0 421.6,523.5 424.1,542.1 426.6,538.2 429.0,539.9 431.5,537.4 433.9,535.8 436.4,539.2 438.9,536.8 441.3,546.7 443.8,535.5 446.2,547.3 448.7,537.5 451.2,541.0 453.6,534.6 456.1,551.3 458.5,545.1 461.0,539.0 463.5,540.6 465.9,541.5 468.4,549.3 470.8,543.4 473.3,544.2 475.8,540.8 478.2,539.4 480.7,540.5 483.1,538.6 485.6,545.9 488.1,549.8 490.5,540.1 493.0,542.8 495.4,542.9 497.9,544.2 500.4,544.4 502.8,544.2 505.3,544.4 507.7,538.2 510.2,539.1 512.7,544.0 515.1,545.5 517.6,540.8 520.0,545.1 522.5,540.5 525.0,536.1 527.4,544.1 529.9,549.3 532.3,542.9 534.8,546.5 537.3,538.8 539.7,545.6 542.2,543.4 544.6,550.1 547.1,549.0 549.6,540.4 552.0,547.3 554.5,542.5 556.9,546.4 559.4,549.2 561.9,539.3 564.3,545.8 566.8,544.2 569.2,542.8 571.7,544.7 574.2,551.6 576.6,550.5 579.1,547.9 581.5,556.9 584.0,555.7 586.5,546.5 588.9,548.6 591.4,543.6 593.8,550.5 596.3,542.4 598.8,551.9 601.2,543.9 603.7,550.4 606.1,542.1 608.6,545.9 611.1,554.9 613.5,552.9 616.0,548.8 618.4,540.2 620.9,551.7 623.4,550.9 625.8,552.0 628.3,548.5 630.7,553.2 633.2,549.8 635.7,552.7 638.1,549.7 640.6,551.0 643.0,554.9 645.5,546.9 648.0,552.7 650.4,546.1 652.9,548.4 655.3,543.3 657.8,552.4 660.3,548.4 662.7,546.7 665.2,552.4 667.6,555.8 670.1,551.3 672.6,548.2 675.0,555.9 677.5,545.1 679.9,555.1 682.4,554.5 684.9,549.4 687.3,557.3 689.8,547.2 692.2,554.5 694.7,540.6 697.2,550.3 699.6,555.2 702.1,558.8 704.5,552.8 707.0,553.6 709.5,547.0 711.9,554.9 714.4,549.2 716.8,556.6 719.3,554.5 721.8,550.7 724.2,553.7 726.7,557.0 729.1,552.1 731.6,548.5 734.1,553.3 736.5,558.6 739.0,555.9 741.4,553.8 743.9,552.7 746.4,557.8 748.8,552.3 751.3,554.8 753.7,562.8 756.2,548.3 758.7,555.7 761.1,547.5 763.6,550.4 766.0,554.9 768.5,556.2 771.0,557.6 773.4,556.0 775.9,549.4 778.3,555.4 780.8,548.6 783.3,552.4 785.7,551.8 788.2,557.6 790.6,559.1 793.1,553.3 795.6,558.0 798.0,560.8 800.5,557.4 802.9,550.4 805.4,547.3 807.9,548.7 810.3,550.0 812.8,552.2 815.2,561.5 817.7,556.1 820.2,555.6 822.6,558.4 825.1,565.1 827.5,552.3 830.0,557.7"/>
<line x1="858" y1="168" x2="886" y2="168" stroke="#dc2626" stroke-width="3"/>
<text x="896" y="172" font-family="Arial, sans-serif" font-size="13" fill="#111827">lr=0.001</text>
<text x="976" y="172" font-family="Arial, sans-serif" font-size="11" fill="#64748b">sweep-20260518-060009</text>
<polyline fill="none" stroke="#7c3aed" stroke-width="1.6" opacity="0.72" points="94.5,126.1 96.9,220.4 99.4,314.5 101.8,363.5 104.3,390.1 106.8,412.1 109.2,426.9 111.7,434.8 114.1,436.2 116.6,450.4 119.1,457.2 121.5,463.4 124.0,465.1 126.4,470.3 128.9,465.7 131.4,465.7 133.8,477.1 136.3,487.1 138.7,481.6 141.2,477.8 143.7,477.3 146.1,485.0 148.6,489.7 151.0,487.2 153.5,494.0 156.0,492.7 158.4,493.9 160.9,495.0 163.3,492.7 165.8,495.9 168.3,503.9 170.7,499.9 173.2,505.1 175.6,495.8 178.1,498.4 180.6,494.5 183.0,501.0 185.5,500.2 187.9,500.1 190.4,504.6 192.9,510.3 195.3,508.0 197.8,505.4 200.2,504.2 202.7,507.7 205.2,510.9 207.6,514.3 210.1,509.5 212.5,519.2 215.0,515.9 217.5,510.8 219.9,513.3 222.4,507.6 224.8,515.6 227.3,517.7 229.8,509.2 232.2,516.9 234.7,519.4 237.1,514.2 239.6,516.3 242.1,518.5 244.5,514.3 247.0,521.3 249.4,512.2 251.9,520.6 254.4,521.1 256.8,527.4 259.3,521.7 261.7,527.6 264.2,521.4 266.7,520.7 269.1,521.4 271.6,524.6 274.0,526.7 276.5,518.3 279.0,523.1 281.4,523.6 283.9,527.9 286.3,524.3 288.8,523.6 291.3,526.2 293.7,524.7 296.2,526.3 298.6,533.7 301.1,518.1 303.6,526.9 306.0,524.5 308.5,530.9 310.9,528.6 313.4,529.8 315.9,518.5 318.3,533.8 320.8,532.7 323.2,533.6 325.7,532.9 328.2,528.9 330.6,539.6 333.1,534.8 335.5,531.5 338.0,526.3 340.5,530.3 342.9,527.5 345.4,527.0 347.8,527.6 350.3,529.4 352.8,526.3 355.2,520.8 357.7,534.2 360.1,531.3 362.6,527.8 365.1,530.5 367.5,533.0 370.0,543.0 372.4,529.7 374.9,539.1 377.4,532.3 379.8,535.7 382.3,538.5 384.7,537.1 387.2,535.6 389.7,541.4 392.1,538.6 394.6,541.7 397.0,537.0 399.5,540.6 402.0,534.8 404.4,532.0 406.9,535.8 409.3,541.1 411.8,540.6 414.3,534.1 416.7,537.1 419.2,541.0 421.6,521.2 424.1,542.1 426.6,537.6 429.0,538.9 431.5,536.9 433.9,535.2 436.4,538.6 438.9,536.5 441.3,545.8 443.8,535.5 446.2,547.7 448.7,536.8 451.2,540.6 453.6,534.8 456.1,550.5 458.5,545.3 461.0,539.1 463.5,540.8 465.9,541.3 468.4,550.0 470.8,542.8 473.3,544.5 475.8,541.7 478.2,539.9 480.7,540.4 483.1,538.8 485.6,545.4 488.1,549.6 490.5,540.4 493.0,542.4 495.4,542.8 497.9,543.7 500.4,544.1 502.8,543.5 505.3,543.8 507.7,537.9 510.2,539.0 512.7,543.3 515.1,545.4 517.6,540.7 520.0,544.4 522.5,540.3 525.0,536.1 527.4,544.5 529.9,548.7 532.3,542.5 534.8,546.9 537.3,538.6 539.7,545.4 542.2,544.5 544.6,550.0 547.1,550.0 549.6,540.3 552.0,547.3 554.5,542.5 556.9,546.0 559.4,549.8 561.9,539.7 564.3,545.4 566.8,544.6 569.2,543.0 571.7,544.8 574.2,552.2 576.6,550.6 579.1,547.6 581.5,556.8 584.0,555.3 586.5,546.4 588.9,548.7 591.4,543.1 593.8,550.6 596.3,542.4 598.8,552.2 601.2,544.2 603.7,550.7 606.1,541.9 608.6,546.1 611.1,554.4 613.5,552.9 616.0,548.8 618.4,540.3 620.9,552.1 623.4,551.2 625.8,552.1 628.3,548.2 630.7,553.4 633.2,550.0 635.7,552.7 638.1,550.1 640.6,551.5 643.0,554.3 645.5,547.3 648.0,552.1 650.4,546.7 652.9,548.9 655.3,543.5 657.8,552.7 660.3,549.2 662.7,547.3 665.2,552.7 667.6,556.0 670.1,552.3 672.6,547.9 675.0,556.9 677.5,545.6 679.9,555.8 682.4,554.6 684.9,550.1 687.3,558.4 689.8,547.4 692.2,554.8 694.7,542.1 697.2,550.6 699.6,555.5 702.1,559.4 704.5,552.4 707.0,554.0 709.5,548.5 711.9,554.9 714.4,549.8 716.8,557.0 719.3,555.5 721.8,551.5 724.2,554.6 726.7,557.1 729.1,552.4 731.6,548.7 734.1,553.8 736.5,558.6 739.0,556.9 741.4,554.0 743.9,553.3 746.4,559.3 748.8,553.4 751.3,555.4 753.7,563.4 756.2,549.6 758.7,556.6 761.1,548.4 763.6,551.0 766.0,555.7 768.5,556.7 771.0,558.4 773.4,556.9 775.9,550.8 778.3,555.3 780.8,549.3 783.3,554.3 785.7,551.5 788.2,558.4 790.6,560.1 793.1,554.2 795.6,558.9 798.0,561.4 800.5,557.7 802.9,551.5 805.4,548.6 807.9,549.4 810.3,550.7 812.8,553.0 815.2,561.9 817.7,556.8 820.2,556.2 822.6,559.2 825.1,565.6 827.5,552.3 830.0,558.9"/>
<line x1="858" y1="196" x2="886" y2="196" stroke="#7c3aed" stroke-width="3"/>
<text x="896" y="200" font-family="Arial, sans-serif" font-size="13" fill="#111827">lr=0.0015</text>
<text x="976" y="200" font-family="Arial, sans-serif" font-size="11" fill="#64748b">refine-20260518-062114</text>
<polyline fill="none" stroke="#0891b2" stroke-width="1.6" opacity="0.72" points="94.5,155.7 96.9,290.7 99.4,362.4 101.8,397.6 104.3,413.5 106.8,428.4 109.2,439.5 111.7,446.0 114.1,446.1 116.6,457.1 119.1,462.6 121.5,467.3 124.0,466.9 126.4,472.2 128.9,465.6 131.4,464.4 133.8,477.0 136.3,483.5 138.7,477.7 141.2,473.9 143.7,474.7 146.1,480.2 148.6,484.7 151.0,481.3 153.5,488.4 156.0,485.6 158.4,486.8 160.9,487.3 163.3,484.2 165.8,489.6 168.3,495.3 170.7,491.6 173.2,496.3 175.6,487.6 178.1,489.9 180.6,485.0 183.0,491.3 185.5,491.0 187.9,489.1 190.4,494.8 192.9,499.4 195.3,498.2 197.8,494.3 200.2,493.6 202.7,496.1 205.2,499.9 207.6,503.7 210.1,497.3 212.5,507.9 215.0,503.4 217.5,497.5 219.9,499.7 222.4,493.8 224.8,501.6 227.3,504.4 229.8,497.2 232.2,502.1 234.7,505.5 237.1,499.7 239.6,501.6 242.1,504.6 244.5,501.0 247.0,505.8 249.4,495.3 251.9,505.9 254.4,505.9 256.8,512.5 259.3,503.6 261.7,510.3 264.2,504.0 266.7,505.5 269.1,503.6 271.6,507.8 274.0,511.7 276.5,499.7 279.0,506.6 281.4,505.9 283.9,507.6 286.3,506.5 288.8,503.5 291.3,507.8 293.7,504.8 296.2,508.4 298.6,513.9 301.1,498.8 303.6,506.8 306.0,505.3 308.5,511.9 310.9,508.1 313.4,509.3 315.9,499.0 318.3,514.5 320.8,513.5 323.2,512.9 325.7,512.7 328.2,509.3 330.6,519.2 333.1,514.3 335.5,509.7 338.0,505.1 340.5,509.7 342.9,506.6 345.4,505.5 347.8,507.3 350.3,507.4 352.8,505.9 355.2,496.9 357.7,508.8 360.1,508.5 362.6,504.5 365.1,508.9 367.5,508.2 370.0,520.0 372.4,505.5 374.9,516.4 377.4,510.8 379.8,512.7 382.3,515.5 384.7,515.0 387.2,512.3 389.7,518.0 392.1,515.3 394.6,518.2 397.0,514.3 399.5,516.9 402.0,512.1 404.4,509.4 406.9,513.2 409.3,518.0 411.8,518.4 414.3,510.1 416.7,513.7 419.2,518.8 421.6,501.6 424.1,519.0 426.6,512.8 429.0,515.7 431.5,512.8 433.9,512.2 436.4,514.7 438.9,512.4 441.3,521.3 443.8,513.3 446.2,524.1 448.7,515.3 451.2,516.9 453.6,509.2 456.1,527.3 458.5,521.0 461.0,516.8 463.5,516.0 465.9,516.4 468.4,523.8 470.8,518.7 473.3,520.3 475.8,517.9 478.2,514.5 480.7,515.7 483.1,514.6 485.6,522.0 488.1,526.5 490.5,516.2 493.0,518.7 495.4,519.1 497.9,518.9 500.4,520.1 502.8,520.3 505.3,521.2 507.7,513.0 510.2,514.0 512.7,521.4 515.1,523.5 517.6,516.8 520.0,521.1 522.5,517.4 525.0,512.7 527.4,518.1 529.9,526.0 532.3,518.4 534.8,523.2 537.3,515.1 539.7,522.5 542.2,521.5 544.6,527.0 547.1,526.9 549.6,517.8 552.0,523.7 554.5,517.9 556.9,523.4 559.4,526.1 561.9,515.3 564.3,520.7 566.8,521.7 569.2,520.1 571.7,521.5 574.2,529.2 576.6,529.5 579.1,524.7 581.5,535.0 584.0,533.4 586.5,521.7 588.9,526.3 591.4,520.8 593.8,525.8 596.3,519.4 598.8,527.9 601.2,519.7 603.7,527.7 606.1,518.5 608.6,523.8 611.1,530.7 613.5,530.6 616.0,525.2 618.4,516.9 620.9,528.6 623.4,529.7 625.8,529.2 628.3,524.7 630.7,529.6 633.2,525.8 635.7,530.3 638.1,528.6 640.6,528.8 643.0,532.1 645.5,524.3 648.0,529.7 650.4,524.2 652.9,526.3 655.3,519.4 657.8,529.8 660.3,526.9 662.7,524.3 665.2,530.4 667.6,533.4 670.1,530.5 672.6,525.6 675.0,536.1 677.5,523.9 679.9,533.8 682.4,532.5 684.9,527.0 687.3,536.2 689.8,522.8 692.2,533.2 694.7,518.3 697.2,528.8 699.6,533.5 702.1,536.4 704.5,531.0 707.0,530.0 709.5,524.8 711.9,533.4 714.4,528.5 716.8,534.0 719.3,534.0 721.8,528.4 724.2,531.8 726.7,535.0 729.1,529.4 731.6,526.5 734.1,530.0 736.5,536.5 739.0,534.8 741.4,532.7 743.9,531.5 746.4,537.6 748.8,529.4 751.3,533.0 753.7,542.5 756.2,525.4 758.7,534.6 761.1,525.2 763.6,529.7 766.0,533.0 768.5,535.1 771.0,536.2 773.4,535.6 775.9,527.3 778.3,534.1 780.8,526.8 783.3,530.8 785.7,529.8 788.2,536.5 790.6,538.4 793.1,531.6 795.6,537.1 798.0,539.4 800.5,536.1 802.9,527.5 805.4,527.3 807.9,527.9 810.3,526.5 812.8,529.0 815.2,540.8 817.7,534.5 820.2,534.4 822.6,537.3 825.1,544.7 827.5,530.9 830.0,535.5"/>
<line x1="858" y1="224" x2="886" y2="224" stroke="#0891b2" stroke-width="3"/>
<text x="896" y="228" font-family="Arial, sans-serif" font-size="13" fill="#111827">lr=0.003</text>
<text x="976" y="228" font-family="Arial, sans-serif" font-size="11" fill="#64748b">sweep-20260518-060009</text>
<polyline fill="none" stroke="#db2777" stroke-width="1.6" opacity="0.72" points="94.5,240.0 96.9,370.9 99.4,400.1 101.8,414.1 104.3,421.3 106.8,432.7 109.2,435.1 111.7,436.4 114.1,419.5 116.6,433.7 119.1,432.3 121.5,438.5 124.0,438.9 126.4,443.9 128.9,440.1 131.4,437.4 133.8,447.8 136.3,449.6 138.7,444.3 141.2,441.1 143.7,439.4 146.1,443.0 148.6,442.5 151.0,444.4 153.5,447.2 156.0,446.1 158.4,447.7 160.9,446.1 163.3,446.4 165.8,446.5 168.3,451.6 170.7,444.6 173.2,449.0 175.6,440.5 178.1,402.7 180.6,410.4 183.0,427.5 185.5,431.0 187.9,417.4 190.4,433.4 192.9,445.5 195.3,441.0 197.8,440.3 200.2,441.2 202.7,444.6 205.2,445.8 207.6,453.6 210.1,447.2 212.5,457.8 215.0,454.4 217.5,448.4 219.9,444.7 222.4,408.0 224.8,388.1 227.3,418.7 229.8,426.2 232.2,434.7 234.7,422.0 237.1,428.6 239.6,435.4 242.1,434.4 244.5,432.0 247.0,444.3 249.4,415.4 251.9,429.2 254.4,435.9 256.8,402.4 259.3,417.1 261.7,429.7 264.2,421.6 266.7,424.9 269.1,430.5 271.6,445.1 274.0,445.4 276.5,418.2 279.0,422.7 281.4,426.7 283.9,397.7 286.3,403.5 288.8,415.7 291.3,415.5 293.7,405.1 296.2,401.8 298.6,412.5 301.1,410.9 303.6,425.0 306.0,425.1 308.5,433.5 310.9,435.0 313.4,432.1 315.9,427.6 318.3,442.2 320.8,445.7 323.2,444.5 325.7,442.4 328.2,441.7 330.6,450.3 333.1,450.9 335.5,446.3 338.0,442.7 340.5,450.1 342.9,445.6 345.4,442.7 347.8,446.6 350.3,436.8 352.8,435.1 355.2,427.4 357.7,443.6 360.1,443.1 362.6,443.2 365.1,445.6 367.5,434.3 370.0,450.2 372.4,435.2 374.9,448.2 377.4,442.7 379.8,441.4 382.3,445.5 384.7,447.5 387.2,445.0 389.7,453.0 392.1,453.7 394.6,449.4 397.0,438.0 399.5,418.1 402.0,404.3 404.4,385.5 406.9,407.4 409.3,421.4 411.8,414.2 414.3,410.7 416.7,411.1 419.2,413.8 421.6,403.5 424.1,432.3 426.6,432.6 429.0,418.7 431.5,419.7 433.9,426.5 436.4,432.5 438.9,438.9 441.3,443.2 443.8,443.1 446.2,454.2 448.7,447.0 451.2,451.7 453.6,442.8 456.1,458.9 458.5,453.1 461.0,451.5 463.5,449.9 465.9,452.1 468.4,455.2 470.8,446.4 473.3,447.4 475.8,446.8 478.2,445.3 480.7,450.0 483.1,446.6 485.6,458.6 488.1,459.1 490.5,440.3 493.0,451.0 495.4,450.2 497.9,451.1 500.4,453.3 502.8,453.0 505.3,453.5 507.7,443.7 510.2,447.7 512.7,454.6 515.1,456.5 517.6,447.9 520.0,452.1 522.5,451.6 525.0,445.6 527.4,453.7 529.9,458.9 532.3,452.0 534.8,455.8 537.3,448.1 539.7,449.2 542.2,451.1 544.6,462.3 547.1,459.0 549.6,453.1 552.0,458.9 554.5,455.0 556.9,457.2 559.4,464.4 561.9,450.9 564.3,459.2 566.8,457.0"/>
<line x1="858" y1="252" x2="886" y2="252" stroke="#db2777" stroke-width="3"/>
<text x="896" y="256" font-family="Arial, sans-serif" font-size="13" fill="#111827">lr=0.01</text>
<text x="976" y="256" font-family="Arial, sans-serif" font-size="11" fill="#64748b">sweep-20260518-060009</text>
</svg>